#!OML:ASF X:\für Bonn\!DataBase\2005_08_12_Daniel\c3d\Daniel.ASF
:FULLY-SPECIFIED
:DEGREES
2241
root -22.4334 16.778 24.7305 -167.262 78.5313 545.593
lowerback 11.6137 -6.46253 -4.8865
upperback 5.90533 -8.74951 -1.88142
thorax 0.176975 -4.3222 1.69227
lowerneck 0.013957 8.64044 -2.52054
upperneck 1.64436 11.8875 -10.6765
head 1.07217 5.891 -2.8189
rclavicle 6.52014e-014 -2.8625e-014
rhumerus -67.3466 3.77021 -92.1314
rradius 54.6793
rwrist -11.3572
rhand -29.2335 28.4371
rfingers 7.12502
rthumb -2.57725 -1.52707
lclavicle 6.52014e-014 -2.8625e-014
lhumerus -43.2685 -2.02593 88.0826
lradius 103.393
lwrist 11.0969
lhand -15.3781 -11.9626
lfingers 7.12502
lthumb 10.8001 17.7397
rfemur -40.2296 1.6385 19.3934
rtibia 60.4772
rfoot -20.997 -3.55632
rtoes -16.6011
lfemur 13.2946 -1.92596 -24.3398
ltibia 25.5015
lfoot -29.2185 1.28207
ltoes -6.10547
2242
root -22.2799 16.738 24.6879 -166.525 78.5164 546.346
lowerback 11.7706 -6.42864 -4.60499
upperback 5.85489 -8.69008 -1.79986
thorax 0.00462598 -4.28455 1.64423
lowerneck -0.0287158 8.75007 -2.2116
upperneck 1.58646 12.0365 -10.8475
head 1.10081 5.96707 -2.92244
rclavicle 8.18993e-014 -3.18055e-015
rhumerus -66.9968 3.45584 -91.5173
rradius 55.1709
rwrist -10.1314
rhand -29.3748 28.4202
rfingers 7.12502
rthumb -2.71364 -1.54224
lclavicle 8.18993e-014 -3.18055e-015
lhumerus -43.6701 -2.13886 88.215
lradius 102.58
lwrist 11.4039
lhand -15.1985 -12.0085
lfingers 7.12502
lthumb 10.9733 17.6847
rfemur -39.7207 1.60887 19.3706
rtibia 60.7093
rfoot -21.5222 -3.38334
rtoes -18.4667
lfemur 13.2762 -1.94684 -24.2381
ltibia 26.4618
lfoot -28.9942 1.15185
ltoes -6.78527
2243
root -22.1276 16.6937 24.6457 -165.94 78.5029 546.983
lowerback 11.9724 -6.37946 -4.33214
upperback 5.83086 -8.60848 -1.7392
thorax -0.166588 -4.23513 1.58007
lowerneck -0.149803 8.85161 -1.83732
upperneck 1.55423 12.1825 -11.0453
head 1.15843 6.03813 -3.04135
rclavicle 3.97569e-014 6.36111e-015
rhumerus -66.5715 3.16479 -90.9872
rradius 55.7252
rwrist -8.98685
rhand -29.4485 28.4436
rfingers 7.12502
rthumb -2.78483 -1.518
lclavicle 3.97569e-014 6.36111e-015
lhumerus -43.967 -2.18807 88.3428
lradius 101.553
lwrist 11.7039
lhand -14.8921 -12.1025
lfingers 7.12502
lthumb 11.2688 17.5748
rfemur -39.1609 1.59201 19.3354
rtibia 60.969
rfoot -22.0632 -3.20486
rtoes -19.9289
lfemur 13.1449 -1.89938 -24.1342
ltibia 27.6777
lfoot -28.8066 0.916704
ltoes -7.92479
2244
root -21.9747 16.6475 24.6015 -165.125 78.4759 547.866
lowerback 12.1716 -6.33745 -3.98157
upperback 5.8136 -8.52622 -1.68162
thorax -0.340846 -4.18421 1.46968
lowerneck -0.179023 8.95886 -1.49883
upperneck 1.37107 12.3122 -11.2181
head 1.14737 6.11056 -3.15501
rclavicle 2.62396e-014 -1.59028e-015
rhumerus -66.0216 2.88072 -90.574
rradius 56.2512
rwrist -7.92282
rhand -29.6049 28.3812
rfingers 7.12502
rthumb -2.93587 -1.57833
lclavicle 2.62396e-014 -1.59028e-015
lhumerus -44.2983 -2.18274 88.4426
lradius 100.406
lwrist 12.0677
lhand -14.6122 -12.259
lfingers 7.12502
lthumb 11.5388 17.4033
rfemur -38.5547 1.49339 19.3718
rtibia 61.223
rfoot -22.6807 -2.88496
rtoes -20.5914
lfemur 12.8724 -1.80761 -23.9596
ltibia 29.1546
lfoot -28.5955 0.642135
ltoes -8.8005
2245
root -21.8246 16.597 24.5564 -164.532 78.4362 548.547
lowerback 12.4538 -6.29376 -3.66343
upperback 5.77223 -8.44747 -1.61436
thorax -0.577177 -4.13446 1.39733
lowerneck -0.185869 9.05158 -1.14693
upperneck 1.19608 12.4265 -11.4581
head 1.14114 6.17585 -3.29519
rclavicle 1.11319e-014 6.67916e-014
rhumerus -65.3791 2.62838 -90.2125
rradius 56.7513
rwrist -7.04265
rhand -29.7893 28.4716
rfingers 7.12502
rthumb -3.11401 -1.48543
lclavicle 1.11319e-014 6.67916e-014
lhumerus -44.6722 -2.10505 88.617
lradius 99.1688
lwrist 12.4915
lhand -14.3361 -12.2818
lfingers 7.12502
lthumb 11.805 17.3655
rfemur -37.9269 1.33254 19.3708
rtibia 61.4869
rfoot -23.3734 -2.52253
rtoes -20.7587
lfemur 12.4726 -1.75752 -23.8472
ltibia 30.8943
lfoot -28.3085 0.446793
ltoes -9.72944
2246
root -21.6731 16.5464 24.5103 -163.704 78.4189 549.456
lowerback 12.6712 -6.22133 -3.26581
upperback 5.77443 -8.31411 -1.5698
thorax -0.749647 -4.05745 1.24112
lowerneck -0.275179 9.11326 -0.739202
upperneck 1.01238 12.4985 -11.6572
head 1.14529 6.21771 -3.4288
rclavicle 1.98785e-014 1.11319e-014
rhumerus -64.5182 2.42597 -90.0281
rradius 57.2122
rwrist -6.43117
rhand -30.0627 28.5398
rfingers 7.12502
rthumb -3.378 -1.41316
lclavicle 1.98785e-014 1.11319e-014
lhumerus -44.936 -2.09021 88.7982
lradius 97.7856
lwrist 12.9988
lhand -14.1175 -12.3881
lfingers 7.12502
lthumb 12.0158 17.247
rfemur -37.2981 1.14632 19.4509
rtibia 61.7245
rfoot -24.0293 -2.17413
rtoes -20.8651
lfemur 11.8928 -1.69452 -23.7039
ltibia 32.9127
lfoot -27.8895 0.287487
ltoes -10.3088
2247
root -21.5181 16.4977 24.4606 -162.948 78.3862 550.338
lowerback 12.9662 -6.16699 -2.86308
upperback 5.73358 -8.20688 -1.49591
thorax -1.0022 -3.99304 1.12549
lowerneck -0.308365 9.18871 -0.330172
upperneck 0.872667 12.5966 -11.9392
head 1.16304 6.27259 -3.59263
rclavicle -1.90833e-014 0
rhumerus -63.7504 2.43465 -89.9536
rradius 57.8056
rwrist -6.1206
rhand -30.4334 28.6919
rfingers 7.12502
rthumb -3.73601 -1.25507
lclavicle -1.90833e-014 0
lhumerus -45.2996 -1.97399 89.0862
lradius 96.3118
lwrist 13.5285
lhand -14.0413 -12.4245
lfingers 7.12502
lthumb 12.0892 17.2063
rfemur -36.5798 0.892988 19.5257
rtibia 61.9489
rfoot -24.6885 -1.69996
rtoes -20.4605
lfemur 11.1782 -1.55997 -23.5451
ltibia 35.2022
lfoot -27.2331 0.153019
ltoes -10.388
2248
root -21.3648 16.4455 24.4108 -162.263 78.328 551.167
lowerback 13.2692 -6.11851 -2.40337
upperback 5.75135 -8.09242 -1.4667
thorax -1.21078 -3.92371 0.927704
lowerneck -0.472224 9.25438 0.0706651
upperneck 0.633137 12.672 -12.1815
head 1.16677 6.31597 -3.73834
rclavicle -1.59028e-015 -3.02153e-014
rhumerus -62.8201 2.36635 -89.9465
rradius 58.3606
rwrist -5.85597
rhand -30.7141 28.9881
rfingers 7.12502
rthumb -4.00704 -0.953946
lclavicle -1.59028e-015 -3.02153e-014
lhumerus -45.5523 -1.88485 89.3422
lradius 94.8111
lwrist 14.2151
lhand -13.9301 -12.3393
lfingers 7.12502
lthumb 12.1965 17.2851
rfemur -35.8252 0.579086 19.6399
rtibia 62.1546
rfoot -25.4325 -1.23899
rtoes -20.2382
lfemur 10.279 -1.37684 -23.3356
ltibia 37.7914
lfoot -26.3132 -0.0518899
ltoes -10.2296
2249
root -21.21 16.3936 24.3577 -161.53 78.2625 552.026
lowerback 13.5538 -6.07602 -1.89626
upperback 5.7442 -7.97916 -1.44738
thorax -1.44147 -3.85517 0.692284
lowerneck -0.559347 9.29797 0.58924
upperneck 0.371516 12.7155 -12.5226
head 1.16485 6.34701 -3.94541
rclavicle 6.44062e-014 1.11319e-014
rhumerus -61.9472 2.3142 -90.0344
rradius 58.9649
rwrist -5.71793
rhand -31.0499 29.4414
rfingers 7.12502
rthumb -4.3313 -0.49426
lclavicle 6.44062e-014 1.11319e-014
lhumerus -45.7711 -1.82106 89.6154
lradius 93.2253
lwrist 14.9931
lhand -13.8929 -12.1451
lfingers 7.12502
lthumb 12.2324 17.4772
rfemur -35.0522 0.170771 19.7846
rtibia 62.3321
rfoot -26.1735 -0.768105
rtoes -20.3681
lfemur 9.18444 -1.00682 -23.0365
ltibia 40.659
lfoot -25.0696 -0.382062
ltoes -10.1633
